<mxfile host="app.diagrams.net" agent="Mozilla/5.0 (Windows NT 10.0; Win64; x64) AppleWebKit/537.36 (KHTML, like Gecko) Chrome/127.0.0.0 Safari/537.36 OPR/113.0.0.0" version="24.8.0">
  <diagram id="prtHgNgQTEPvFCAcTncT" name="Page-1">
    <mxGraphModel dx="753" dy="429" grid="1" gridSize="10" guides="1" tooltips="1" connect="1" arrows="1" fold="1" page="1" pageScale="1" pageWidth="827" pageHeight="1169" math="0" shadow="0">
      <root>
        <mxCell id="0" />
        <mxCell id="1" parent="0" />
        <mxCell id="dNxyNK7c78bLwvsdeMH5-19" value="NS" style="swimlane;html=1;childLayout=stackLayout;resizeParent=1;resizeParentMax=0;horizontal=0;startSize=20;horizontalStack=0;" parent="1" vertex="1">
          <mxGeometry x="120" y="120" width="750" height="220" as="geometry" />
        </mxCell>
        <mxCell id="dNxyNK7c78bLwvsdeMH5-27" value="" style="edgeStyle=orthogonalEdgeStyle;rounded=0;orthogonalLoop=1;jettySize=auto;html=1;dashed=1;endArrow=none;endFill=0;" parent="dNxyNK7c78bLwvsdeMH5-19" source="dNxyNK7c78bLwvsdeMH5-24" edge="1">
          <mxGeometry relative="1" as="geometry">
            <mxPoint x="180" y="335" as="targetPoint" />
          </mxGeometry>
        </mxCell>
        <mxCell id="dNxyNK7c78bLwvsdeMH5-20" value="Melder" style="swimlane;html=1;startSize=20;horizontal=0;" parent="dNxyNK7c78bLwvsdeMH5-19" vertex="1">
          <mxGeometry x="20" width="730" height="120" as="geometry" />
        </mxCell>
        <mxCell id="dNxyNK7c78bLwvsdeMH5-25" value="" style="edgeStyle=orthogonalEdgeStyle;rounded=0;orthogonalLoop=1;jettySize=auto;html=1;" parent="dNxyNK7c78bLwvsdeMH5-20" source="dNxyNK7c78bLwvsdeMH5-23" target="dNxyNK7c78bLwvsdeMH5-24" edge="1">
          <mxGeometry relative="1" as="geometry" />
        </mxCell>
        <mxCell id="dNxyNK7c78bLwvsdeMH5-23" value="start" style="ellipse;whiteSpace=wrap;html=1;" parent="dNxyNK7c78bLwvsdeMH5-20" vertex="1">
          <mxGeometry x="40" y="40" width="40" height="40" as="geometry" />
        </mxCell>
        <mxCell id="dNxyNK7c78bLwvsdeMH5-24" value="melding" style="rounded=0;whiteSpace=wrap;html=1;fontFamily=Helvetica;fontSize=12;fontColor=#000000;align=center;" parent="dNxyNK7c78bLwvsdeMH5-20" vertex="1">
          <mxGeometry x="120" y="30" width="80" height="60" as="geometry" />
        </mxCell>
        <mxCell id="bLs9IsvR2o_hPNLltjXx-41" value="eind" style="ellipse;whiteSpace=wrap;html=1;" vertex="1" parent="dNxyNK7c78bLwvsdeMH5-20">
          <mxGeometry x="687" y="40" width="40" height="40" as="geometry" />
        </mxCell>
        <mxCell id="bLs9IsvR2o_hPNLltjXx-53" value="" style="edgeStyle=orthogonalEdgeStyle;rounded=0;orthogonalLoop=1;jettySize=auto;html=1;" edge="1" parent="dNxyNK7c78bLwvsdeMH5-20" source="bLs9IsvR2o_hPNLltjXx-52" target="bLs9IsvR2o_hPNLltjXx-41">
          <mxGeometry relative="1" as="geometry" />
        </mxCell>
        <mxCell id="bLs9IsvR2o_hPNLltjXx-52" value="treinen rijden weer" style="rounded=0;whiteSpace=wrap;html=1;fontFamily=Helvetica;fontSize=12;fontColor=#000000;align=center;" vertex="1" parent="dNxyNK7c78bLwvsdeMH5-20">
          <mxGeometry x="570" y="30" width="80" height="60" as="geometry" />
        </mxCell>
        <mxCell id="dNxyNK7c78bLwvsdeMH5-21" value="planner" style="swimlane;html=1;startSize=20;horizontal=0;" parent="dNxyNK7c78bLwvsdeMH5-19" vertex="1">
          <mxGeometry x="20" y="120" width="730" height="100" as="geometry" />
        </mxCell>
        <mxCell id="bLs9IsvR2o_hPNLltjXx-13" value="eind" style="ellipse;whiteSpace=wrap;html=1;fontColor=#000000;" vertex="1" parent="dNxyNK7c78bLwvsdeMH5-21">
          <mxGeometry x="250" y="130" width="40" height="40" as="geometry" />
        </mxCell>
        <mxCell id="bLs9IsvR2o_hPNLltjXx-38" value="planning veranderen" style="rounded=0;whiteSpace=wrap;html=1;fontFamily=Helvetica;fontSize=12;fontColor=#000000;align=center;" vertex="1" parent="dNxyNK7c78bLwvsdeMH5-21">
          <mxGeometry x="350" y="10" width="80" height="60" as="geometry" />
        </mxCell>
        <mxCell id="bLs9IsvR2o_hPNLltjXx-3" value="ProRail" style="swimlane;childLayout=stackLayout;resizeParent=1;resizeParentMax=0;horizontal=0;startSize=20;horizontalStack=0;html=1;" vertex="1" parent="1">
          <mxGeometry x="120" y="370" width="750" height="170" as="geometry" />
        </mxCell>
        <mxCell id="bLs9IsvR2o_hPNLltjXx-4" value="Meldkamer" style="swimlane;startSize=20;horizontal=0;html=1;" vertex="1" parent="bLs9IsvR2o_hPNLltjXx-3">
          <mxGeometry x="20" width="730" height="170" as="geometry" />
        </mxCell>
        <mxCell id="bLs9IsvR2o_hPNLltjXx-46" value="" style="edgeStyle=orthogonalEdgeStyle;rounded=0;orthogonalLoop=1;jettySize=auto;html=1;entryX=0;entryY=0.5;entryDx=0;entryDy=0;" edge="1" parent="bLs9IsvR2o_hPNLltjXx-4" source="bLs9IsvR2o_hPNLltjXx-11" target="dNxyNK7c78bLwvsdeMH5-28">
          <mxGeometry relative="1" as="geometry" />
        </mxCell>
        <mxCell id="bLs9IsvR2o_hPNLltjXx-11" value="prognose&amp;nbsp;" style="rounded=0;whiteSpace=wrap;html=1;fontFamily=Helvetica;fontSize=12;fontColor=#000000;align=center;" vertex="1" parent="bLs9IsvR2o_hPNLltjXx-4">
          <mxGeometry x="120" y="65" width="80" height="60" as="geometry" />
        </mxCell>
        <mxCell id="dNxyNK7c78bLwvsdeMH5-28" value="" style="rhombus;whiteSpace=wrap;html=1;fontFamily=Helvetica;fontSize=12;fontColor=#000000;align=center;" parent="bLs9IsvR2o_hPNLltjXx-4" vertex="1">
          <mxGeometry x="250" y="75" width="40" height="40" as="geometry" />
        </mxCell>
        <mxCell id="bLs9IsvR2o_hPNLltjXx-15" value="Belt niet" style="text;html=1;align=center;verticalAlign=middle;whiteSpace=wrap;rounded=0;" vertex="1" parent="bLs9IsvR2o_hPNLltjXx-4">
          <mxGeometry x="280" y="35" width="60" height="30" as="geometry" />
        </mxCell>
        <mxCell id="bLs9IsvR2o_hPNLltjXx-21" value="Belt wel" style="text;html=1;align=center;verticalAlign=middle;whiteSpace=wrap;rounded=0;" vertex="1" parent="bLs9IsvR2o_hPNLltjXx-4">
          <mxGeometry x="280" y="105" width="60" height="30" as="geometry" />
        </mxCell>
        <mxCell id="bLs9IsvR2o_hPNLltjXx-36" value="tijd schatting" style="rounded=0;whiteSpace=wrap;html=1;fontFamily=Helvetica;fontSize=12;fontColor=#000000;align=center;" vertex="1" parent="bLs9IsvR2o_hPNLltjXx-4">
          <mxGeometry x="350" y="55" width="80" height="60" as="geometry" />
        </mxCell>
        <mxCell id="bLs9IsvR2o_hPNLltjXx-7" value="Aannemer&amp;nbsp;" style="swimlane;childLayout=stackLayout;resizeParent=1;resizeParentMax=0;horizontal=0;startSize=20;horizontalStack=0;html=1;" vertex="1" parent="1">
          <mxGeometry x="120" y="600" width="750" height="120" as="geometry" />
        </mxCell>
        <mxCell id="bLs9IsvR2o_hPNLltjXx-8" value="aannemer&amp;nbsp;" style="swimlane;startSize=20;horizontal=0;html=1;" vertex="1" parent="bLs9IsvR2o_hPNLltjXx-7">
          <mxGeometry x="20" width="730" height="120" as="geometry" />
        </mxCell>
        <mxCell id="bLs9IsvR2o_hPNLltjXx-26" value="gaat naar probleem" style="rounded=0;whiteSpace=wrap;html=1;fontFamily=Helvetica;fontSize=12;fontColor=#000000;align=center;" vertex="1" parent="bLs9IsvR2o_hPNLltjXx-8">
          <mxGeometry x="230" y="30" width="80" height="60" as="geometry" />
        </mxCell>
        <mxCell id="bLs9IsvR2o_hPNLltjXx-35" value="fix het probleem" style="rounded=0;whiteSpace=wrap;html=1;fontFamily=Helvetica;fontSize=12;fontColor=#000000;align=center;" vertex="1" parent="bLs9IsvR2o_hPNLltjXx-8">
          <mxGeometry x="480" y="30" width="80" height="60" as="geometry" />
        </mxCell>
        <mxCell id="bLs9IsvR2o_hPNLltjXx-48" value="tijd schatting" style="rounded=0;whiteSpace=wrap;html=1;fontFamily=Helvetica;fontSize=12;fontColor=#000000;align=center;" vertex="1" parent="bLs9IsvR2o_hPNLltjXx-8">
          <mxGeometry x="350" y="30" width="80" height="60" as="geometry" />
        </mxCell>
        <mxCell id="bLs9IsvR2o_hPNLltjXx-50" value="" style="edgeStyle=orthogonalEdgeStyle;rounded=0;orthogonalLoop=1;jettySize=auto;html=1;" edge="1" parent="bLs9IsvR2o_hPNLltjXx-8" source="bLs9IsvR2o_hPNLltjXx-26" target="bLs9IsvR2o_hPNLltjXx-48">
          <mxGeometry relative="1" as="geometry" />
        </mxCell>
        <mxCell id="bLs9IsvR2o_hPNLltjXx-14" value="" style="edgeStyle=orthogonalEdgeStyle;rounded=0;orthogonalLoop=1;jettySize=auto;html=1;" edge="1" parent="1" source="dNxyNK7c78bLwvsdeMH5-28" target="bLs9IsvR2o_hPNLltjXx-13">
          <mxGeometry relative="1" as="geometry" />
        </mxCell>
        <mxCell id="bLs9IsvR2o_hPNLltjXx-25" style="edgeStyle=orthogonalEdgeStyle;rounded=0;orthogonalLoop=1;jettySize=auto;html=1;dashed=1;entryX=0.5;entryY=0;entryDx=0;entryDy=0;" edge="1" parent="1" source="dNxyNK7c78bLwvsdeMH5-28" target="bLs9IsvR2o_hPNLltjXx-26">
          <mxGeometry relative="1" as="geometry">
            <mxPoint x="410" y="590" as="targetPoint" />
          </mxGeometry>
        </mxCell>
        <mxCell id="bLs9IsvR2o_hPNLltjXx-27" style="edgeStyle=orthogonalEdgeStyle;rounded=0;orthogonalLoop=1;jettySize=auto;html=1;dashed=1;entryX=0.5;entryY=1;entryDx=0;entryDy=0;" edge="1" parent="1" source="bLs9IsvR2o_hPNLltjXx-48" target="bLs9IsvR2o_hPNLltjXx-36">
          <mxGeometry relative="1" as="geometry">
            <mxPoint x="530" y="500" as="targetPoint" />
          </mxGeometry>
        </mxCell>
        <mxCell id="bLs9IsvR2o_hPNLltjXx-37" style="edgeStyle=orthogonalEdgeStyle;rounded=0;orthogonalLoop=1;jettySize=auto;html=1;dashed=1;entryX=0.5;entryY=1;entryDx=0;entryDy=0;" edge="1" parent="1" source="bLs9IsvR2o_hPNLltjXx-36" target="bLs9IsvR2o_hPNLltjXx-38">
          <mxGeometry relative="1" as="geometry">
            <mxPoint x="530" y="330" as="targetPoint" />
          </mxGeometry>
        </mxCell>
        <mxCell id="bLs9IsvR2o_hPNLltjXx-51" style="edgeStyle=orthogonalEdgeStyle;rounded=0;orthogonalLoop=1;jettySize=auto;html=1;entryX=0.5;entryY=0;entryDx=0;entryDy=0;dashed=1;" edge="1" parent="1" source="bLs9IsvR2o_hPNLltjXx-36" target="bLs9IsvR2o_hPNLltjXx-35">
          <mxGeometry relative="1" as="geometry">
            <mxPoint x="660" y="455" as="targetPoint" />
          </mxGeometry>
        </mxCell>
        <mxCell id="bLs9IsvR2o_hPNLltjXx-40" style="edgeStyle=orthogonalEdgeStyle;rounded=0;orthogonalLoop=1;jettySize=auto;html=1;entryX=0.5;entryY=1;entryDx=0;entryDy=0;dashed=1;" edge="1" parent="1" source="bLs9IsvR2o_hPNLltjXx-35" target="bLs9IsvR2o_hPNLltjXx-52">
          <mxGeometry relative="1" as="geometry">
            <mxPoint x="760" y="660" as="targetPoint" />
          </mxGeometry>
        </mxCell>
      </root>
    </mxGraphModel>
  </diagram>
</mxfile>
